<svg width="106" height="34" viewBox="0 0 106 34" fill="none" xmlns="http://www.w3.org/2000/svg">
<path fill-rule="evenodd" clip-rule="evenodd" d="M16.8061 26.8678C16.3333 26.881 15.8736 26.8415 15.4008 26.7757C14.1268 26.5915 12.9316 26.1836 11.8284 25.5126C9.38551 24.0391 7.82259 21.8945 7.17904 19.0788C7.03457 18.4473 6.9689 17.8026 6.9689 17.1579C6.95577 14.5791 7.79633 12.3161 9.50371 10.3952C10.9878 8.73741 12.8266 7.72432 14.9936 7.30329C15.5978 7.18488 16.2019 7.11909 16.8061 7.14541C16.8061 8.13219 16.8061 9.10581 16.8061 10.0926C16.7798 10.1057 16.7535 10.1189 16.7273 10.1452C16.3727 10.3952 16.0181 10.6583 15.6766 10.9346C14.9017 11.5662 14.1662 12.2372 13.5489 13.0398C12.7215 14.1055 12.1699 15.2765 12.0911 16.6579C12.0517 17.3158 12.1305 17.9605 12.3406 18.5789C12.8528 20.1183 14.442 21.7103 16.6747 21.7497C16.8061 21.7497 16.8323 21.776 16.8323 21.9208C16.8192 22.5918 16.8192 23.9338 16.8192 23.9338C16.8192 23.9338 16.8192 24.0127 16.8192 24.0522C16.8061 24.9864 16.8061 25.9205 16.8061 26.8678Z" fill="#0099FF"/>
<path fill-rule="evenodd" clip-rule="evenodd" d="M16.805 10.0791C16.805 10.0791 16.805 8.11868 16.805 7.1319C17.3435 7.11874 17.8688 7.17137 18.3942 7.25031C19.3792 7.4082 20.3248 7.69765 21.2179 8.15815C23.0698 9.11861 24.5276 10.4869 25.5127 12.3552C26.0774 13.4341 26.4452 14.5788 26.5896 15.7761C26.7604 17.1839 26.629 18.5785 26.2088 19.9337C25.7228 21.4731 24.9085 22.8282 23.7659 23.9729C22.3737 25.3544 20.7189 26.2491 18.8013 26.6569C18.1446 26.7885 17.4748 26.8675 16.805 26.8543C16.805 25.907 16.805 24.9728 16.805 24.0255C16.805 23.9861 16.805 23.9203 16.805 23.9203C16.805 23.9203 16.8444 23.894 16.8575 23.8808C17.882 23.1572 18.8539 22.3677 19.6944 21.4204C20.246 20.8021 20.7189 20.1442 21.0472 19.3811C21.5069 18.3022 21.6907 17.197 21.4543 16.0261C21.0341 13.8946 19.1297 12.3026 16.9363 12.25C16.7919 12.25 16.805 12.1316 16.805 12.1316V10.0791Z" fill="#0561E2"/>
<path d="M39.3448 20.0672C39.3448 20.6107 39.2557 21.1284 39.0901 21.6331C38.9246 22.1378 38.6571 22.5778 38.326 22.966C37.9821 23.3542 37.5618 23.6519 37.0524 23.8848C36.543 24.1048 35.9444 24.2213 35.2821 24.2213C34.2123 24.2213 33.3336 23.9625 32.6586 23.4578C31.9709 22.9531 31.5251 22.1507 31.3086 21.0507L33.5628 20.5072C33.6392 20.9601 33.8175 21.3225 34.1105 21.5943C34.3906 21.866 34.7472 21.9954 35.1675 21.9954C35.8553 21.9954 36.3265 21.7625 36.5685 21.2837C36.8104 20.8178 36.9378 20.1578 36.9378 19.3296V10.1284H39.3448V20.0672Z" fill="#F4F0F0"/>
<path d="M52.6156 18.8249C52.6156 19.6531 52.4755 20.4037 52.1953 21.0637C51.9151 21.7366 51.5331 22.2931 51.0491 22.759C50.5652 23.2248 49.9921 23.5872 49.3298 23.8331C48.6675 24.0919 47.9416 24.2084 47.1647 24.2084C46.3878 24.2084 45.6619 24.0789 45.0124 23.8331C44.3501 23.5872 43.777 23.2248 43.2803 22.759C42.7836 22.2931 42.4016 21.7237 42.1341 21.0637C41.8539 20.4037 41.7266 19.6531 41.7266 18.8249V10.1284H44.1336V18.7472C44.1336 19.0837 44.1846 19.4331 44.2864 19.8084C44.3883 20.1707 44.5539 20.5201 44.7959 20.8307C45.0251 21.1413 45.3435 21.4001 45.7383 21.5943C46.1204 21.8013 46.6043 21.8919 47.1775 21.8919C47.7506 21.8919 48.2345 21.7884 48.6166 21.5943C48.9987 21.4001 49.3171 21.1413 49.559 20.8307C49.7883 20.5201 49.9666 20.1837 50.0685 19.8084C50.1704 19.4331 50.2213 19.0837 50.2213 18.7472V10.1284H52.6284V18.8249H52.6156Z" fill="#F4F0F0"/>
<path d="M61.7338 13.0788C61.4791 12.7035 61.1353 12.4317 60.715 12.2506C60.282 12.0694 59.8362 11.9917 59.365 11.9917C59.0848 11.9917 58.8174 12.0306 58.5499 12.0953C58.2825 12.16 58.0532 12.2635 57.8494 12.4059C57.6329 12.5482 57.4674 12.7294 57.34 12.9623C57.2127 13.1953 57.149 13.4541 57.149 13.7647C57.149 14.2306 57.3018 14.5929 57.6329 14.8258C57.9513 15.0717 58.3461 15.2917 58.8174 15.46C59.2886 15.6411 59.798 15.8223 60.3584 15.9905C60.9188 16.1588 61.4282 16.3917 61.9121 16.6894C62.3834 16.987 62.7782 17.3882 63.0966 17.867C63.415 18.3588 63.5805 19.0188 63.5805 19.8211C63.5805 20.5588 63.4532 21.2058 63.1857 21.7493C62.9183 22.3058 62.5617 22.7588 62.1032 23.1211C61.6447 23.4835 61.1225 23.7552 60.5239 23.9364C59.9254 24.1176 59.2886 24.2082 58.6391 24.2082C57.7985 24.2082 56.9834 24.0658 56.2193 23.7811C55.4424 23.4964 54.7674 23.0176 54.207 22.3446L56.0282 20.5588C56.3212 21.0117 56.7032 21.3611 57.1872 21.6199C57.6711 21.8788 58.1678 21.9952 58.7027 21.9952C58.9829 21.9952 59.2631 21.9564 59.5433 21.8788C59.8235 21.8011 60.0782 21.6846 60.3074 21.5293C60.5367 21.3741 60.715 21.1799 60.8551 20.9341C60.9952 20.7011 61.0716 20.4164 61.0716 20.1058C61.0716 19.6011 60.906 19.2129 60.5876 18.9411C60.2692 18.6694 59.8744 18.4364 59.4032 18.2552C58.932 18.0741 58.4098 17.8929 57.8494 17.7247C57.2891 17.5564 56.7669 17.3235 56.3084 17.0388C55.8372 16.7541 55.4424 16.3658 55.124 15.8741C54.8056 15.3823 54.64 14.7353 54.64 13.92C54.64 13.2082 54.7801 12.6 55.0731 12.0823C55.3532 11.5647 55.7353 11.1376 56.2065 10.7882C56.665 10.4517 57.1999 10.1929 57.7985 10.0247C58.3971 9.85646 59.0084 9.77881 59.6324 9.77881C60.3456 9.77881 61.0334 9.89528 61.7084 10.1023C62.3706 10.3223 62.9819 10.6847 63.5168 11.1894L61.7338 13.0788Z" fill="#F4F0F0"/>
<path d="M65.5909 10.1284H70.1375C70.787 10.1284 71.4111 10.1931 72.0224 10.3225C72.621 10.4519 73.1559 10.6719 73.6144 10.9696C74.0729 11.2802 74.4422 11.6814 74.7096 12.1861C74.9771 12.7037 75.1172 13.3378 75.1172 14.1013C75.1172 14.9684 74.9644 15.6672 74.6714 16.1978C74.3785 16.7284 73.9837 17.1425 73.487 17.4272C72.9903 17.7119 72.4172 17.919 71.755 18.0225C71.0927 18.126 70.4177 18.1778 69.7045 18.1778H67.9852V23.8719H65.5781V10.1284H65.5909ZM69.4498 16.0943C69.7937 16.0943 70.1503 16.0813 70.5196 16.0555C70.8889 16.0296 71.2328 15.9519 71.5384 15.8225C71.8441 15.6931 72.0988 15.499 72.3026 15.2402C72.4936 14.9813 72.5955 14.619 72.5955 14.1531C72.5955 13.7261 72.5064 13.3896 72.3281 13.1308C72.1498 12.8719 71.9205 12.6778 71.6403 12.5484C71.3601 12.4061 71.0418 12.3284 70.6979 12.2896C70.354 12.2508 70.0229 12.2249 69.7045 12.2249H67.9852V16.0943H69.4498Z" fill="#F4F0F0"/>
<path d="M79.7433 10.1284H81.8192L87.6522 23.8719H84.9013L83.6404 20.7272H77.782L76.5594 23.8719H73.8594L79.7433 10.1284ZM82.7999 18.6307L80.7112 13.0402L78.5971 18.6307H82.7999Z" fill="#F4F0F0"/>
<path d="M90.5816 17.9966L85.5 10.1284H88.5184L91.8424 15.6025L95.2046 10.1284H98.0702L92.9886 17.9966V23.8848H90.5816V17.9966Z" fill="#F4F0F0"/>
</svg>
